<!DOCTYPE svg PUBLIC "-//W3C//DTD SVG 20010904//EN" "http://www.w3.org/TR/2001/REC-SVG-20010904/DTD/svg10.dtd">
<svg version="1.0" xmlns="http://www.w3.org/2000/svg" width="426px" height="79px" viewBox="0 0 4260 790" preserveAspectRatio="xMidYMid meet">
<g id="layer101" fill="#d82835" stroke="none">
 <path d="M97 585 c-66 -92 -73 -115 -76 -259 -1 -57 1 -61 66 -152 l67 -94 315 0 315 0 -64 65 -64 65 -197 0 -198 0 -20 26 c-12 15 -21 37 -21 50 l0 24 218 0 217 1 63 85 c41 55 61 91 57 102 -3 8 -31 51 -63 93 l-57 78 -248 1 -247 0 -63 -85z m471 -77 c15 -25 15 -28 -3 -47 -17 -20 -29 -21 -182 -21 -163 0 -163 0 -163 23 0 12 12 35 26 50 l25 28 140 -3 140 -3 17 -27z"/>
 <path d="M917 602 l-67 -68 0 -160 0 -160 68 -67 68 -67 244 0 245 1 68 64 69 65 5 161 6 160 -69 70 -68 69 -251 0 -251 0 -67 -68z m516 -69 c3 -5 2 -79 0 -165 l-6 -158 -193 0 c-126 0 -195 4 -199 11 -4 6 -4 80 0 165 l7 154 194 0 c106 0 195 -3 197 -7z"/>
 <path d="M1777 602 l-67 -68 0 -160 0 -160 68 -67 68 -67 245 0 245 0 67 68 67 68 0 160 0 160 -68 67 -68 67 -245 0 -245 0 -67 -68z m513 -227 l0 -165 -200 0 -200 0 0 165 0 165 200 0 200 0 0 -165z"/>
 <path d="M2627 602 l-67 -68 0 -160 0 -160 68 -67 68 -67 244 0 245 0 68 66 67 66 7 160 6 159 -69 70 -68 69 -251 0 -251 0 -67 -68z m513 -227 l0 -165 -200 0 -200 0 0 88 c0 49 3 123 6 165 l7 77 193 0 194 0 0 -165z"/>
 <path d="M3486 580 l-66 -89 0 -118 0 -119 63 -86 62 -87 315 0 314 -1 -64 65 -64 65 -191 0 c-187 0 -192 1 -213 23 -12 13 -22 35 -22 50 l0 27 214 0 214 0 66 89 67 89 -67 91 -66 91 -248 0 -248 0 -66 -90z m473 -66 c20 -25 20 -27 3 -50 -17 -23 -20 -23 -179 -24 l-163 0 0 27 c0 15 10 37 22 50 20 22 28 23 159 23 136 0 138 0 158 -26z"/>
 </g>

</svg>