<!DOCTYPE svg PUBLIC "-//W3C//DTD SVG 20010904//EN" "http://www.w3.org/TR/2001/REC-SVG-20010904/DTD/svg10.dtd">
<svg version="1.0" xmlns="http://www.w3.org/2000/svg" width="487px" height="296px" viewBox="0 0 4870 2960" preserveAspectRatio="xMidYMid meet">
<g id="layer101" fill="#e8e7e8" stroke="none">
 <path d="M3804 2658 c-3 -5 -11 -8 -17 -6 -10 2 -44 -14 -141 -67 -17 -9 -42 -43 -62 -83 -14 -29 9 -25 34 6 15 18 30 32 35 32 11 0 -3 -53 -18 -65 -6 -5 -20 -35 -30 -65 -10 -30 -22 -60 -26 -66 -5 -6 -7 -18 -3 -27 3 -8 1 -17 -4 -21 -14 -8 5 -127 28 -171 11 -21 20 -45 20 -52 0 -7 9 -17 20 -23 11 -6 20 -16 20 -22 0 -16 81 -98 97 -98 7 0 17 -9 23 -20 6 -11 15 -18 20 -15 5 3 15 -3 22 -15 7 -11 18 -20 24 -20 6 0 22 -10 36 -23 14 -13 39 -29 57 -36 17 -8 31 -18 31 -24 0 -14 32 -36 52 -37 10 0 22 -9 28 -20 6 -11 16 -17 25 -14 8 4 18 -1 21 -10 3 -9 12 -16 19 -16 6 0 20 -9 30 -20 10 -11 23 -20 29 -20 7 0 19 -9 29 -20 9 -11 23 -20 31 -20 8 0 52 -37 97 -83 85 -84 147 -180 157 -242 13 -74 2 -215 -17 -239 -6 -7 -8 -16 -5 -19 3 -3 -1 -16 -10 -29 -9 -12 -16 -30 -16 -39 0 -9 -14 -31 -30 -49 -16 -18 -30 -35 -30 -39 0 -13 -90 -72 -99 -66 -5 3 -12 1 -16 -5 -11 -18 -76 -40 -100 -34 -13 3 -29 3 -36 -2 -17 -10 -212 -11 -227 0 -7 5 -33 6 -59 3 -26 -3 -58 0 -72 6 -15 6 -44 11 -66 12 -22 1 -53 8 -70 15 -16 7 -34 12 -39 11 -4 -1 -20 6 -35 16 -14 9 -30 18 -36 18 -22 2 -45 18 -45 31 0 17 10 18 47 3 15 -7 39 -13 52 -15 13 -2 31 -6 40 -10 9 -4 29 -8 45 -10 16 -2 34 -8 40 -12 6 -5 28 -9 49 -9 21 -1 43 -6 50 -11 16 -13 288 -13 304 0 7 6 25 11 40 13 38 3 121 47 160 84 18 17 37 31 42 31 6 0 11 8 11 18 0 9 9 32 21 51 11 19 22 46 24 60 1 14 4 26 5 26 2 0 4 34 5 75 2 49 -2 86 -12 108 -8 18 -12 36 -10 40 2 4 -4 21 -14 37 -10 17 -25 44 -33 61 -7 17 -28 41 -45 53 -17 12 -31 29 -31 37 0 8 -5 14 -10 14 -6 0 -29 18 -51 40 -22 22 -47 40 -55 40 -8 0 -17 7 -20 15 -4 8 -12 15 -19 15 -8 0 -30 16 -51 35 -20 19 -43 35 -50 35 -17 0 -114 69 -114 81 0 5 -7 9 -15 9 -19 0 -111 66 -119 85 -3 8 -11 12 -18 10 -7 -3 -26 11 -42 30 -16 19 -35 35 -43 35 -7 0 -19 16 -27 35 -8 19 -20 34 -26 33 -12 -3 -64 81 -55 90 3 3 -2 16 -11 29 -8 13 -16 46 -16 74 -1 28 -7 54 -15 60 -7 6 -13 10 -14 8 -5 -22 -3 -161 2 -164 4 -3 10 -20 13 -38 3 -19 20 -49 36 -67 17 -19 30 -39 30 -45 0 -7 16 -28 35 -48 19 -20 35 -40 35 -45 0 -12 64 -72 78 -72 6 0 17 -9 24 -20 7 -11 18 -20 25 -20 7 0 22 -13 35 -30 12 -16 27 -30 33 -30 6 0 28 -16 49 -35 21 -19 41 -35 43 -35 3 0 18 -9 35 -21 19 -14 28 -28 26 -43 -4 -29 -45 -30 -84 0 -17 13 -33 22 -36 19 -3 -3 -18 0 -34 6 -16 7 -33 13 -39 14 -37 5 -65 20 -84 46 -24 32 -51 39 -51 12 1 -27 21 -48 68 -72 29 -15 42 -27 40 -39 -3 -14 -14 -17 -57 -16 -35 1 -58 7 -65 16 -17 23 -56 33 -56 14 0 -23 49 -67 79 -72 59 -9 66 -12 69 -29 5 -22 -14 -35 -52 -35 -24 0 -27 -2 -16 -15 16 -19 40 -19 76 0 16 8 37 15 46 15 9 0 20 5 23 10 10 15 55 12 61 -5 4 -8 12 -15 20 -15 8 0 14 -7 14 -15 0 -21 44 -40 67 -29 10 4 23 8 28 9 6 0 20 6 32 13 12 7 28 12 35 12 8 0 19 5 26 12 19 19 79 17 98 -3 22 -24 45 -138 46 -220 0 -46 -6 -78 -21 -110 -25 -53 -82 -119 -103 -119 -9 0 -18 -7 -21 -14 -9 -23 -75 -32 -95 -13 -14 14 -14 20 -2 44 8 15 27 41 42 57 16 17 28 35 28 42 0 27 -20 64 -35 64 -9 0 -18 7 -21 15 -4 8 -10 12 -15 9 -5 -3 -23 1 -39 9 -16 9 -38 13 -49 10 -10 -2 -22 0 -25 6 -4 5 -13 8 -20 5 -8 -3 -17 -1 -20 4 -3 6 -14 8 -24 5 -25 -6 -67 42 -67 78 0 30 -15 41 -26 18 -3 -8 -11 -24 -17 -36 -7 -13 -12 -30 -12 -38 0 -36 -83 9 -92 51 -4 17 -6 16 -15 -6 -8 -20 -6 -32 15 -63 21 -31 24 -42 14 -57 -14 -22 6 -44 32 -34 9 3 23 1 30 -5 8 -7 17 -8 20 -3 3 5 36 8 73 6 71 -3 90 -17 58 -44 -8 -7 -15 -18 -15 -25 0 -7 -7 -19 -16 -26 -12 -10 -15 -25 -12 -61 5 -51 -1 -61 -43 -71 -23 -6 -34 1 -79 49 -36 38 -62 57 -82 60 -17 2 -35 8 -42 13 -19 16 -228 8 -252 -9 -35 -26 -35 -36 2 -76 19 -21 51 -58 71 -81 19 -24 42 -43 50 -43 8 0 27 -8 41 -18 59 -41 95 -53 139 -46 28 4 48 2 58 -6 8 -6 18 -9 24 -6 5 3 22 1 38 -6 15 -6 32 -10 36 -10 14 4 65 -27 70 -43 4 -8 14 -15 24 -15 10 -1 36 -18 57 -39 31 -31 38 -43 33 -64 -6 -22 -13 -25 -69 -30 -35 -2 -67 -1 -72 4 -5 4 -14 5 -21 3 -7 -3 -16 -1 -20 5 -10 16 -36 13 -80 -9 -25 -13 -40 -28 -41 -40 -1 -15 2 -17 17 -10 18 10 75 7 87 -4 9 -10 -11 -39 -34 -50 -22 -10 -74 -80 -74 -99 0 -8 3 -16 6 -20 9 -9 74 43 74 58 0 12 21 25 42 25 11 0 1 -59 -14 -78 -7 -8 -7 -17 2 -27 19 -22 24 -19 44 25 10 22 23 40 30 40 8 0 19 7 26 15 7 9 18 14 24 12 6 -2 28 5 48 15 20 11 47 21 60 22 56 8 89 26 109 62 15 27 14 31 -1 59 -9 17 -31 45 -49 64 -39 42 -42 79 -6 79 14 0 28 -4 31 -9 8 -13 152 -11 160 2 4 6 19 9 37 5 16 -3 35 -2 41 3 6 4 29 14 51 21 34 11 89 42 105 60 3 3 14 10 24 16 11 6 24 19 30 29 6 10 27 36 46 58 44 49 49 58 54 96 2 17 8 36 13 43 12 16 7 206 -7 242 -5 15 -10 38 -10 50 0 13 -6 29 -14 35 -8 7 -18 26 -21 42 -4 16 -11 29 -16 29 -5 0 -13 8 -16 18 -4 9 -13 28 -22 41 -20 32 -24 61 -8 61 14 0 77 61 77 75 0 4 7 16 15 25 13 14 13 19 0 44 -8 16 -15 35 -15 44 0 8 -3 12 -7 9 -8 -8 -43 22 -43 37 0 6 -9 22 -20 36 -19 25 -27 69 -12 71 4 1 17 3 29 4 31 3 102 62 109 91 10 40 -4 40 -45 0 -66 -65 -85 -34 -39 62 18 35 19 46 9 68 -6 14 -9 29 -6 33 2 5 -4 16 -15 26 -19 18 -20 17 -21 -11 -1 -57 -6 -74 -24 -94 -22 -24 -50 -27 -41 -5 3 9 -1 18 -9 21 -8 3 -21 18 -28 32 -44 85 -46 87 -53 69 -3 -10 1 -32 10 -51 9 -19 16 -48 16 -65 0 -32 -43 -135 -60 -146 -6 -4 -8 -11 -4 -16 3 -5 0 -17 -7 -25 -11 -13 -6 -22 30 -54 24 -21 49 -36 56 -34 19 8 43 -35 41 -76 -1 -32 -4 -35 -31 -36 -16 0 -46 8 -65 19 -71 39 -106 61 -129 84 -13 12 -28 20 -34 16 -5 -3 -15 0 -21 8 -6 8 -33 23 -59 33 -27 10 -60 29 -74 42 -14 13 -34 24 -44 24 -10 0 -22 6 -26 13 -4 7 -21 17 -38 23 -16 6 -29 16 -27 22 1 7 -6 12 -16 12 -10 0 -31 14 -47 30 -16 17 -33 30 -37 30 -26 0 -98 102 -105 150 -7 48 -7 166 1 178 4 7 5 16 2 21 -22 35 110 187 144 166 5 -3 11 -1 15 5 3 5 21 10 40 10 19 0 37 -5 40 -10 4 -6 11 -8 16 -5 13 9 89 -36 89 -52 0 -7 4 -13 10 -13 15 0 40 -56 40 -89 0 -40 -16 -80 -35 -86 -8 -3 -23 -8 -32 -12 -36 -14 -58 -10 -90 16 -21 17 -31 32 -27 43 2 9 0 19 -6 23 -5 3 -10 14 -10 24 0 10 -7 24 -15 31 -12 10 -18 8 -35 -11 -21 -26 -21 -51 -1 -87 7 -13 10 -26 7 -29 -3 -3 15 -22 40 -41 38 -30 55 -36 97 -37 30 -1 61 4 74 13 12 7 26 11 31 8 16 -9 85 70 85 98 0 15 3 29 8 32 5 3 9 18 9 34 0 16 -4 31 -9 34 -5 3 -8 16 -8 29 0 13 -12 42 -27 65 -14 23 -26 48 -26 55 0 16 -31 47 -47 47 -6 0 -32 10 -59 22 -27 12 -53 23 -59 23 -5 1 -12 3 -15 4 -15 7 -142 5 -146 -1z"/>
 <path d="M91 1864 l-32 -36 2 -175 c2 -225 5 -230 157 -224 41 2 68 40 67 95 0 36 -5 52 -18 60 -24 15 -39 -9 -32 -50 7 -42 -20 -66 -71 -62 -50 4 -54 22 -53 211 1 162 3 167 67 167 39 0 57 -24 57 -74 0 -37 2 -41 25 -41 24 0 25 3 24 53 -2 44 -7 59 -30 83 -24 25 -35 29 -80 29 -47 0 -55 -3 -83 -36z"/>
 <path d="M345 1858 c8 -61 34 -198 40 -208 3 -4 10 -37 15 -72 24 -144 26 -148 71 -148 24 0 39 5 40 13 0 6 2 21 4 32 46 251 57 306 73 367 10 38 1 58 -25 58 -17 0 -30 -32 -38 -93 l-6 -48 -52 3 c-56 3 -57 4 -72 101 -5 31 -10 37 -31 37 -23 0 -24 -3 -19 -42z m161 -150 c-3 -7 -12 -57 -22 -112 -19 -109 -26 -107 -44 12 -6 37 -14 77 -17 90 -5 20 -2 22 41 22 32 0 44 -4 42 -12z"/>
 <path d="M704 1888 c-36 -12 -64 -65 -64 -122 0 -35 2 -37 28 -34 24 3 27 7 30 48 3 52 21 70 68 70 22 0 36 -7 46 -22 20 -32 16 -98 -8 -115 -10 -8 -47 -34 -81 -58 -60 -43 -62 -46 -68 -100 -12 -93 31 -136 127 -128 52 5 60 9 79 39 28 47 24 118 -8 122 -21 3 -23 -1 -23 -41 0 -66 -46 -96 -101 -67 -15 8 -19 21 -19 60 0 53 12 67 91 103 61 28 74 50 73 129 0 59 -4 73 -25 93 -28 29 -97 40 -145 23z"/>
 <path d="M938 1895 c-3 -3 -1 -25 4 -48 5 -23 14 -67 19 -97 6 -30 15 -80 22 -110 14 -70 15 -75 23 -135 8 -64 18 -75 64 -75 l37 0 16 93 c9 50 26 142 37 202 32 168 33 175 5 175 -22 0 -30 -18 -39 -80 -8 -54 -16 -61 -64 -58 -43 3 -47 5 -54 36 -4 17 -12 47 -16 65 -7 30 -37 48 -54 32z m158 -222 c-3 -27 -8 -57 -11 -68 -2 -11 -8 -42 -13 -70 -10 -55 -10 -54 -31 60 -25 135 -27 125 20 125 l42 0 -7 -47z"/>
 <path d="M1447 1893 c-3 -4 -8 -28 -12 -53 -3 -25 -11 -59 -16 -75 -5 -17 -11 -49 -14 -70 -10 -82 -25 -163 -35 -189 -5 -15 -10 -40 -10 -55 0 -22 4 -27 23 -27 29 1 30 7 90 346 15 87 22 79 37 -47 6 -48 13 -90 16 -95 6 -9 13 -55 20 -123 6 -55 18 -75 45 -75 28 0 28 -5 -27 265 -8 39 -16 84 -19 100 -15 93 -19 100 -57 103 -20 2 -38 -1 -41 -5z"/>
 <path d="M1639 1895 c-5 -5 13 -124 24 -160 4 -11 9 -40 12 -64 3 -23 7 -46 10 -51 2 -4 7 -27 10 -51 3 -24 10 -66 16 -94 11 -50 11 -50 50 -50 26 0 41 5 44 15 5 19 35 182 39 212 1 13 5 30 9 38 6 15 28 149 31 185 1 14 -6 21 -21 23 -26 4 -36 -16 -47 -90 l-7 -48 -49 0 c-50 0 -58 7 -66 60 -8 55 -18 80 -34 80 -9 0 -19 -2 -21 -5z m161 -194 c0 -11 -4 -31 -9 -44 -6 -14 -12 -56 -16 -93 -6 -71 -25 -113 -25 -59 -1 17 -7 57 -15 89 -8 33 -12 63 -9 67 2 4 0 19 -6 33 -9 26 -9 26 35 26 38 0 45 -3 45 -19z"/>
 <path d="M1940 1663 l0 -238 25 0 25 0 0 213 0 212 80 0 c79 0 80 0 80 25 l0 25 -105 0 -105 0 0 -237z"/>
 <path d="M2210 1663 l0 -238 25 0 25 0 0 213 0 212 80 0 c79 0 80 0 80 25 l0 25 -105 0 -105 0 0 -237z"/>
 <path d="M2465 1827 c6 -40 14 -78 18 -83 3 -6 9 -37 12 -69 2 -31 10 -76 16 -99 7 -22 13 -52 15 -66 10 -84 11 -86 54 -82 34 4 40 8 49 36 11 36 26 127 23 140 -2 4 1 13 6 20 5 6 12 34 16 61 4 28 11 70 16 95 20 101 20 120 1 120 -28 0 -40 -21 -48 -81 l-8 -54 -56 -3 -56 -3 -6 56 c-6 61 -20 85 -46 85 -16 0 -16 -6 -6 -73z m159 -124 c-4 -10 -15 -65 -24 -123 -17 -105 -23 -111 -34 -35 -10 67 -24 139 -31 158 -6 15 -1 17 45 17 46 0 51 -2 44 -17z"/>
 <path d="M2770 1666 l0 -234 78 -4 c88 -6 111 4 137 54 20 41 11 132 -15 158 -17 17 -17 18 1 34 16 13 19 31 21 106 0 49 1 96 2 103 1 6 -10 12 -24 12 -25 0 -25 -1 -28 -90 -3 -104 -17 -125 -82 -125 l-37 0 -6 68 c-4 37 -7 86 -7 110 0 35 -3 42 -20 42 -19 0 -20 -7 -20 -234z m163 -60 c17 -26 8 -113 -14 -127 -8 -5 -34 -8 -59 -7 l-45 3 -2 75 c0 41 0 77 2 80 2 3 26 3 54 2 38 -3 53 -9 64 -26z"/>
 <path d="M3135 1873 c-3 -14 -5 -110 -4 -212 l2 -186 -47 -3 c-40 -3 -46 -6 -46 -25 0 -22 2 -22 120 -19 111 3 120 5 120 23 0 16 -7 19 -45 19 l-45 0 0 215 0 215 -24 0 c-17 0 -26 -7 -31 -27z"/>
 <path d="M3294 1886 c-3 -8 1 -43 10 -78 23 -101 66 -310 72 -353 1 -11 3 -22 3 -25 1 -3 19 -5 41 -5 39 0 40 0 46 45 3 25 8 54 12 65 6 22 7 26 22 105 17 86 29 161 36 213 6 43 5 47 -14 47 -26 0 -33 -11 -38 -58 -2 -20 -5 -46 -7 -57 -1 -15 -11 -21 -36 -23 -56 -6 -81 5 -81 35 0 49 -22 103 -42 103 -10 0 -21 -6 -24 -14z m162 -203 c-4 -21 -8 -47 -9 -58 -12 -78 -20 -116 -27 -120 -7 -4 -21 52 -25 100 -1 11 -5 41 -9 68 l-7 47 41 0 42 0 -6 -37z"/>
 </g>

</svg>