<!DOCTYPE svg PUBLIC "-//W3C//DTD SVG 20010904//EN" "http://www.w3.org/TR/2001/REC-SVG-20010904/DTD/svg10.dtd">
<svg version="1.0" xmlns="http://www.w3.org/2000/svg" width="1024px" height="370px" viewBox="0 0 10240 3700" preserveAspectRatio="xMidYMid meet">
<g id="layer101" fill="#f6f6f6" stroke="none">
 <path d="M2315 2831 c-72 -18 -84 -22 -145 -49 -141 -62 -254 -189 -304 -343 -37 -115 -44 -322 -15 -449 53 -227 184 -373 402 -445 67 -22 227 -33 347 -24 109 8 147 18 226 55 28 13 54 24 57 24 10 0 54 38 108 92 67 67 127 196 145 313 9 59 11 292 2 300 -3 4 -183 6 -399 6 -229 -1 -400 3 -409 8 -11 8 -12 14 -2 35 7 14 18 38 24 54 28 61 100 98 210 107 86 7 218 -6 303 -30 110 -30 112 -30 118 2 3 15 11 48 17 73 16 63 30 130 37 167 5 30 2 33 -38 52 -56 25 -96 37 -189 56 -105 21 -399 19 -495 -4z m375 -843 c0 -40 -43 -110 -81 -132 -24 -13 -54 -18 -106 -18 -63 0 -78 3 -107 25 -33 26 -76 101 -76 134 0 17 15 18 185 18 l185 0 0 -27z"/>
 <path d="M4415 2831 c-125 -27 -207 -72 -301 -166 -44 -44 -87 -95 -95 -112 -8 -18 -17 -33 -21 -33 -5 0 -8 -9 -8 -19 0 -11 -4 -22 -9 -25 -12 -8 -37 -107 -51 -209 -20 -135 4 -293 66 -434 10 -24 22 -43 26 -43 5 0 8 -5 8 -12 0 -6 33 -43 73 -82 79 -77 154 -121 270 -156 91 -28 366 -28 454 1 88 28 204 91 252 138 65 64 161 212 161 249 0 10 4 22 8 27 30 34 40 263 17 380 -23 115 -27 126 -63 195 -72 137 -173 223 -327 278 -118 43 -321 53 -460 23z m288 -360 c39 -22 66 -84 82 -192 20 -135 -2 -298 -48 -359 -59 -79 -212 -80 -265 -1 -39 58 -67 196 -58 288 13 136 15 147 50 222 29 63 161 87 239 42z"/>
 <path d="M6531 2833 c-65 -15 -149 -62 -188 -104 -20 -23 -55 -94 -82 -169 -9 -24 -15 -133 -18 -357 l-6 -323 -73 0 c-90 0 -86 10 -82 -195 l3 -150 78 -3 77 -3 0 -144 c0 -79 3 -150 6 -159 4 -10 18 -16 36 -16 17 0 47 -4 67 -9 20 -5 90 -17 156 -26 66 -9 135 -20 153 -25 62 -16 61 -17 64 193 l3 192 145 5 145 5 3 159 c2 108 -1 163 -9 172 -9 11 -44 14 -150 14 l-139 0 0 245 c0 259 4 290 48 329 33 29 174 21 269 -14 11 -5 24 -6 27 -3 3 4 6 79 6 168 0 172 -1 177 -50 188 -222 52 -362 60 -489 30z"/>
 <path d="M7595 2831 c-91 -26 -131 -49 -178 -101 -96 -107 -107 -164 -107 -550 l0 -299 -77 -3 -78 -3 0 -170 0 -170 78 -3 77 -3 0 -158 0 -158 43 -8 c77 -13 370 -54 412 -58 19 -2 20 5 23 196 l2 197 145 0 144 0 6 43 c9 58 2 283 -8 294 -5 4 -71 8 -148 8 l-139 0 0 256 c0 269 3 292 46 324 21 16 164 21 192 6 9 -5 38 -12 65 -15 l47 -7 -2 167 -3 168 -46 16 c-136 49 -380 64 -494 31z"/>
 <path d="M8725 2833 c-33 -8 -68 -18 -77 -24 -10 -5 -24 -9 -32 -9 -30 0 -153 -79 -211 -136 -62 -61 -135 -185 -135 -231 0 -10 -4 -23 -9 -28 -10 -11 -17 -63 -27 -185 -13 -154 44 -363 129 -473 34 -44 62 -71 140 -132 21 -17 113 -58 168 -75 97 -29 394 -29 473 1 120 44 176 77 231 133 66 68 76 81 106 146 47 99 72 243 67 390 l-3 105 -409 3 -409 2 6 36 c8 46 54 113 87 126 53 22 66 26 106 37 91 24 278 2 417 -51 15 -6 30 -8 33 -5 3 2 14 45 25 93 11 49 24 103 29 120 14 42 12 80 -2 92 -21 16 -127 49 -212 66 -101 21 -403 20 -491 -1z m207 -823 l170 0 -7 -32 c-21 -99 -72 -139 -176 -141 -108 -2 -170 47 -185 144 -6 38 -5 42 10 36 10 -4 94 -7 188 -7z"/>
 <path d="M9820 2827 c-113 -43 -174 -124 -173 -231 1 -75 20 -120 70 -167 61 -59 97 -73 188 -73 64 -1 88 4 122 22 190 100 189 333 -2 434 -49 26 -155 34 -205 15z"/>
 <path d="M177 2808 c-4 -12 -7 -397 -7 -854 0 -632 3 -833 12 -842 27 -27 884 -9 913 19 5 5 18 9 29 9 28 0 159 46 203 72 170 99 282 234 341 413 35 106 37 125 37 305 0 175 -11 275 -36 322 -5 10 -9 25 -9 34 0 24 -70 164 -104 209 -76 98 -178 182 -281 229 -85 39 -95 44 -140 56 -146 41 -155 42 -556 47 l-396 5 -6 -24z m725 -389 c29 -6 57 -15 63 -20 5 -5 17 -9 26 -9 26 0 113 -83 136 -132 34 -70 43 -107 53 -218 25 -276 -45 -450 -206 -514 -56 -23 -79 -26 -179 -26 l-115 0 0 465 0 465 85 0 c46 0 108 -5 137 -11z"/>
 <path d="M3296 2798 c-10 -50 -6 -1658 5 -1685 l8 -23 228 3 228 2 3 868 2 867 -234 0 -233 0 -7 -32z"/>
 <path d="M5680 2822 c-118 -1 -218 -6 -222 -10 -5 -5 -8 -291 -9 -637 0 -505 3 -630 13 -637 7 -4 112 -7 233 -5 l220 2 3 641 c2 509 0 643 -10 645 -7 2 -110 3 -228 1z"/>
 <path d="M5454 1387 c-2 -7 -3 -73 -2 -147 l3 -134 40 -9 c22 -4 126 -7 230 -5 l190 3 0 150 0 150 -228 3 c-181 2 -229 0 -233 -11z"/>
 </g>

</svg>