<!DOCTYPE svg PUBLIC "-//W3C//DTD SVG 20010904//EN" "http://www.w3.org/TR/2001/REC-SVG-20010904/DTD/svg10.dtd">
<svg version="1.0" xmlns="http://www.w3.org/2000/svg" width="522px" height="215px" viewBox="0 0 5220 2150" preserveAspectRatio="xMidYMid meet">
<g id="layer101" fill="#fcfcfc" stroke="none">
 <path d="M2165 1950 c-277 -22 -384 -34 -580 -66 -383 -64 -730 -166 -966 -284 -100 -51 -235 -148 -298 -215 -82 -89 -113 -151 -119 -242 -6 -93 9 -147 62 -222 216 -305 824 -523 1741 -623 165 -18 1032 -18 1205 0 994 103 1681 378 1797 718 22 64 14 183 -17 246 -87 183 -353 353 -758 482 -260 84 -660 161 -992 192 -201 19 -898 28 -1075 14z m860 -80 c1080 -70 1865 -369 1902 -725 30 -286 -429 -552 -1187 -690 -351 -63 -592 -85 -1012 -92 -465 -8 -852 20 -1223 87 -1442 262 -1637 905 -380 1254 271 75 694 142 1045 165 185 12 672 13 855 1z"/>
 <path d="M3305 1655 c-68 -24 -105 -87 -105 -177 0 -21 -2 -38 -5 -38 -3 0 -22 8 -43 19 -101 51 -186 23 -209 -68 l-9 -34 -95 147 -95 148 -69 1 c-44 1 -70 -3 -73 -11 -2 -6 37 -76 87 -155 137 -219 158 -261 142 -280 -12 -15 -16 -15 -49 3 -47 24 -142 122 -223 230 -122 163 -203 220 -311 220 -32 0 -73 -6 -91 -14 -36 -14 -83 -65 -98 -104 l-9 -24 -45 41 c-24 22 -48 41 -53 41 -10 0 -52 -43 -52 -53 0 -3 24 -29 54 -57 33 -31 60 -68 71 -96 63 -166 196 -286 333 -302 36 -4 48 -1 59 13 24 34 15 52 -42 79 -106 52 -185 157 -185 245 0 34 6 49 29 72 35 34 66 37 120 9 101 -51 165 -213 131 -330 -9 -32 -8 -37 15 -57 42 -37 73 -30 95 20 11 23 20 57 20 75 l0 33 62 -66 c98 -106 183 -143 247 -111 24 13 34 27 43 61 l12 45 30 -31 c16 -17 47 -39 68 -50 115 -59 219 32 163 141 -15 30 -61 60 -89 60 -27 0 -68 -44 -68 -73 0 -33 -19 -22 -38 22 -18 44 -9 91 21 114 23 16 32 18 61 8 43 -14 105 -58 209 -149 139 -120 233 -153 322 -114 30 13 51 31 63 53 14 29 18 31 28 17 6 -9 60 -91 119 -182 l108 -166 79 0 c44 0 80 2 80 5 0 2 -49 80 -108 172 -243 376 -322 506 -322 532 0 6 11 13 25 17 35 9 84 -24 188 -125 l87 -85 27 26 26 27 -109 109 c-125 124 -187 162 -269 162 -61 0 -89 -18 -105 -65 l-12 -36 -36 32 c-64 56 -143 77 -207 54z m189 -153 c50 -35 120 -129 123 -167 2 -16 6 -47 9 -68 8 -47 -8 -67 -51 -67 -111 0 -264 249 -198 323 22 24 63 17 117 -21z"/>
 <path d="M1293 1637 c-186 -72 -236 -302 -100 -463 39 -46 139 -96 185 -92 33 3 37 6 40 33 2 25 -3 33 -33 49 -82 45 -133 133 -114 200 30 108 152 132 285 57 65 -38 195 -166 274 -271 35 -47 68 -91 74 -99 17 -22 -60 -5 -111 25 -48 28 -78 31 -87 8 -15 -40 63 -86 188 -110 l86 -17 50 -67 c60 -81 192 -209 249 -242 22 -12 41 -25 41 -28 0 -13 -254 -45 -355 -45 -226 0 -375 85 -375 213 0 49 24 72 74 72 55 0 104 -27 163 -88 82 -85 112 -51 51 57 -43 75 -108 137 -174 168 -185 85 -344 -79 -257 -264 22 -49 117 -145 169 -171 173 -88 418 -100 777 -37 199 36 343 53 493 61 120 5 210 -1 426 -33 34 -5 38 -3 44 22 13 53 -45 112 -156 157 -49 20 -71 23 -210 22 -154 0 -156 0 -350 -52 -107 -29 -205 -55 -217 -58 -16 -4 -23 -2 -23 8 0 7 -14 22 -31 32 -38 22 -197 179 -228 224 l-23 33 73 -2 c95 -2 99 -4 99 -45 0 -51 60 -114 109 -114 42 0 54 7 70 37 26 49 -2 119 -60 149 l-32 16 26 16 c30 19 34 34 13 51 -17 14 -45 3 -83 -32 -20 -18 -31 -19 -100 -13 -166 14 -160 12 -201 79 -142 233 -266 394 -357 466 -91 70 -156 95 -260 98 -54 2 -103 -2 -122 -10z m1122 -768 c9 -28 -2 -41 -26 -28 -22 11 -43 55 -34 70 8 12 53 -19 60 -42z"/>
 </g>

</svg>