<!DOCTYPE svg PUBLIC "-//W3C//DTD SVG 20010904//EN" "http://www.w3.org/TR/2001/REC-SVG-20010904/DTD/svg10.dtd">
<svg version="1.0" xmlns="http://www.w3.org/2000/svg" width="1600px" height="799px" viewBox="0 0 16000 7990" preserveAspectRatio="xMidYMid meet">
<g id="layer101" fill="#fefefe" stroke="none">
 <path d="M680 6725 l0 -205 1435 0 1435 0 0 205 0 205 -1435 0 -1435 0 0 -205z"/>
 <path d="M3920 6725 l0 -205 2043 0 2042 0 -40 36 c-45 39 -187 138 -255 178 -168 96 -325 152 -519 181 -79 13 -345 15 -1683 15 l-1588 0 0 -205z"/>
 <path d="M8810 6725 l0 -205 1025 0 1025 0 0 205 0 205 -1025 0 -1025 0 0 -205z"/>
 <path d="M12053 6908 c-15 -31 -41 -101 -63 -168 -10 -30 -30 -86 -44 -125 -14 -38 -26 -76 -26 -82 0 -10 38 -13 159 -13 l159 0 -20 58 c-11 31 -23 66 -28 77 -15 37 -42 109 -56 155 -8 25 -19 54 -24 65 -4 11 -11 28 -14 38 -8 24 -31 21 -43 -5z"/>
 <path d="M13270 6725 l0 -205 1035 0 1035 0 0 205 0 205 -1035 0 -1035 0 0 -205z"/>
 <path d="M682 5943 l3 -208 1430 0 1430 0 3 208 2 207 -1435 0 -1435 0 2 -207z"/>
 <path d="M3920 5940 l0 -210 2276 0 2276 0 -7 43 c-18 106 -69 262 -108 330 l-28 47 -2204 0 -2205 0 0 -210z"/>
 <path d="M8810 5940 l0 -210 1023 2 1022 3 3 208 2 207 -1025 0 -1025 0 0 -210z"/>
 <path d="M11772 6123 c-24 -65 -74 -199 -102 -270 -50 -133 -101 -118 398 -121 l432 -2 0 22 c0 13 -7 41 -15 63 -8 22 -33 92 -55 155 -23 63 -46 130 -51 148 l-10 32 -293 0 -294 0 -10 -27z"/>
 <path d="M13272 5943 l3 -208 1033 -3 1032 -2 0 210 0 210 -1035 0 -1035 0 2 -207z"/>
 <path d="M1480 5160 l0 -210 623 2 622 3 3 208 2 207 -625 0 -625 0 0 -210z"/>
 <path d="M4740 5160 l0 -210 623 2 622 3 3 208 2 207 -625 0 -625 0 0 -210z"/>
 <path d="M7180 5160 l0 -210 622 2 622 3 16 45 c9 25 22 72 29 105 7 33 17 76 22 96 5 20 9 66 9 103 l0 66 -660 0 -660 0 0 -210z"/>
 <path d="M9610 5160 l0 -210 623 2 622 3 0 205 0 205 -622 3 -623 2 0 -210z"/>
 <path d="M11492 5353 c-5 -10 -19 -47 -31 -83 -12 -36 -26 -74 -31 -85 -24 -58 -80 -219 -80 -231 0 -2 322 -4 715 -4 l715 0 0 24 c0 13 -9 45 -20 71 -11 26 -31 80 -44 119 -14 40 -37 103 -51 139 l-27 67 -569 0 c-531 0 -569 -1 -577 -17z"/>
 <path d="M13272 5163 l3 -208 623 -3 622 -2 0 210 0 210 -625 0 -625 0 2 -207z"/>
 <path d="M1482 4383 l3 -208 620 0 620 0 3 208 2 207 -625 0 -625 0 2 -207z"/>
 <path d="M4742 4383 l3 -208 1583 -3 1583 -2 123 122 c109 108 226 258 226 289 0 5 -766 9 -1760 9 l-1760 0 2 -207z"/>
 <path d="M9610 4380 l0 -210 623 2 622 3 0 205 0 205 -622 3 -623 2 0 -210z"/>
 <path d="M11200 4533 c-12 -32 -26 -67 -30 -78 -4 -11 -13 -36 -20 -55 -15 -43 -24 -68 -38 -100 -12 -26 -42 -117 -42 -125 0 -3 448 -5 996 -5 l996 0 -5 33 c-2 17 -19 70 -36 117 -18 47 -44 121 -58 165 -15 44 -31 86 -36 93 -7 9 -191 12 -857 12 l-848 0 -22 -57z"/>
 <path d="M13272 4383 l3 -208 620 0 620 0 3 208 2 207 -625 0 -625 0 2 -207z"/>
 <path d="M1480 3605 l0 -205 625 0 625 0 -2 203 -3 202 -622 3 -623 2 0 -205z"/>
 <path d="M4740 3605 l0 -205 1760 0 c968 0 1760 2 1760 4 0 5 -62 109 -70 116 -3 3 -18 22 -33 43 -33 44 -144 157 -206 210 l-45 37 -1583 0 -1583 0 0 -205z"/>
 <path d="M9610 3605 l0 -205 1172 2 1172 3 26 75 c31 86 35 98 61 164 10 27 19 55 19 62 0 35 17 7 39 -64 14 -42 28 -84 32 -92 18 -36 49 -124 49 -136 0 -12 187 -14 1170 -14 l1170 0 0 205 0 205 -622 -2 -623 -3 -6 -95 c-3 -52 -6 -88 -7 -80 -1 8 -17 52 -34 97 l-33 83 -1136 0 -1136 0 -23 -72 c-33 -102 -34 -103 -40 -13 l-5 80 -622 3 -623 2 0 -205z"/>
 <path d="M1480 2825 l0 -205 625 0 625 0 -2 203 -3 202 -622 3 -623 2 0 -205z"/>
 <path d="M4740 2825 l0 -205 625 0 625 0 -2 203 -3 202 -622 3 -623 2 0 -205z"/>
 <path d="M7180 2825 l0 -205 660 0 660 0 0 63 c0 34 -4 78 -9 97 -5 19 -15 62 -22 95 -7 33 -20 80 -29 105 l-16 45 -622 3 -622 2 0 -205z"/>
 <path d="M9610 2825 l0 -205 1024 0 c807 0 1025 3 1033 13 5 6 15 30 22 52 13 42 47 136 61 170 10 24 60 167 60 172 0 2 -495 3 -1100 3 l-1100 0 0 -205z"/>
 <path d="M12310 3020 c0 -10 26 -94 40 -125 4 -11 17 -46 29 -77 44 -121 59 -164 65 -180 5 -17 63 -18 1041 -18 l1035 0 0 205 0 205 -1105 0 c-703 0 -1105 -4 -1105 -10z"/>
 <path d="M660 2040 l0 -200 1430 0 1430 0 0 200 0 200 -1430 0 -1430 0 0 -200z"/>
 <path d="M3920 2040 l0 -200 2208 0 2208 0 31 63 c43 86 77 193 97 305 l5 32 -2274 0 -2275 0 0 -200z"/>
 <path d="M8790 2040 l0 -200 1303 0 1302 0 63 193 c34 105 63 195 62 200 0 4 -614 7 -1365 7 l-1365 0 0 -200z"/>
 <path d="M12590 2235 c0 -6 108 -333 122 -367 l10 -28 1299 0 1299 0 0 200 0 200 -1365 0 c-751 0 -1365 -2 -1365 -5z"/>
 <path d="M660 1260 l0 -200 1430 0 1430 0 0 200 0 200 -1430 0 -1430 0 0 -200z"/>
 <path d="M3920 1260 l0 -200 1625 0 c1083 0 1642 3 1677 10 115 23 221 54 298 87 135 58 344 182 420 250 15 13 35 30 46 38 17 13 -240 14 -2023 15 l-2043 0 0 -200z"/>
 <path d="M8790 1260 l0 -200 1163 0 1162 0 17 48 c42 122 97 271 112 306 9 21 16 40 16 42 0 2 -556 4 -1235 4 l-1235 0 0 -200z"/>
 <path d="M12876 1433 c4 -16 15 -46 24 -68 9 -22 27 -69 39 -105 12 -36 26 -74 31 -85 5 -11 16 -41 26 -67 l17 -48 1153 0 1154 0 0 200 0 200 -1225 0 -1225 0 6 -27z"/>
 </g>

</svg>