<!DOCTYPE svg PUBLIC "-//W3C//DTD SVG 20010904//EN" "http://www.w3.org/TR/2001/REC-SVG-20010904/DTD/svg10.dtd">
<svg version="1.0" xmlns="http://www.w3.org/2000/svg" width="908px" height="187px" viewBox="0 0 9080 1870" preserveAspectRatio="xMidYMid meet">
<g id="layer101" fill="#636968" stroke="none">
 <path d="M60 1746 c0 -6 38 -191 85 -411 47 -220 116 -543 153 -718 l67 -318 477 3 476 3 26 24 c53 50 50 71 -46 414 -54 194 -65 225 -100 268 -21 27 -56 58 -77 68 l-39 20 35 166 c19 92 33 168 32 170 -9 7 -357 75 -386 75 -48 0 -69 -29 -81 -113 -6 -40 -16 -108 -22 -153 l-12 -80 -29 4 c-33 5 -28 -9 -85 237 -20 88 -40 166 -44 174 -10 19 -430 182 -430 167z m717 -782 c13 -8 29 -27 37 -42 20 -38 106 -380 106 -419 0 -42 -24 -55 -97 -51 l-57 3 -67 268 -67 269 61 -7 c34 -4 72 -13 84 -21z"/>
 <path d="M8180 1506 c-223 -51 -415 -97 -426 -104 -27 -14 -54 -70 -54 -112 0 -33 47 -209 60 -223 9 -10 411 41 424 53 5 5 2 35 -9 72 -33 115 -21 145 61 154 73 9 88 -8 124 -141 33 -124 37 -177 14 -196 -9 -7 -109 -24 -238 -40 -123 -14 -232 -32 -244 -38 -31 -17 -52 -63 -53 -118 -1 -64 83 -362 117 -413 14 -21 44 -51 66 -67 l41 -28 414 -3 c362 -2 417 -1 444 13 65 34 75 126 33 313 -14 64 -27 118 -28 119 -3 4 -416 -46 -425 -51 -5 -4 -1 -37 10 -78 10 -40 19 -85 19 -99 0 -37 -29 -59 -79 -59 -70 0 -91 30 -129 182 -18 70 -32 133 -32 141 0 40 22 47 242 77 120 16 230 36 246 44 34 18 57 62 67 127 6 38 -2 85 -40 240 -50 202 -67 249 -107 286 -26 24 -70 44 -96 42 -9 -1 -199 -43 -422 -93z"/>
 <path d="M1340 1372 c-24 -25 -30 -39 -30 -74 0 -56 223 -860 249 -896 30 -42 63 -70 103 -87 55 -22 834 -23 878 0 36 19 50 43 50 89 0 30 -178 624 -225 752 -19 50 -82 116 -133 138 -24 10 -172 30 -407 56 -203 22 -389 43 -412 46 -38 6 -46 3 -73 -24z m537 -177 c21 -9 44 -25 52 -37 7 -12 58 -170 112 -352 91 -306 97 -332 83 -353 -22 -35 -93 -32 -134 4 -28 25 -41 63 -130 363 -55 184 -100 342 -100 351 0 40 51 50 117 24z"/>
 <path d="M6975 1325 c-192 -19 -368 -36 -390 -39 -54 -7 -95 -52 -95 -105 0 -50 221 -750 250 -791 12 -17 45 -44 73 -60 l52 -30 413 0 c448 0 456 1 480 55 19 40 14 97 -15 200 l-27 96 -130 -6 c-72 -3 -168 -8 -213 -11 -93 -7 -95 -8 -68 -84 21 -59 19 -86 -7 -104 -32 -23 -80 -20 -119 7 -33 22 -37 34 -131 336 -53 173 -99 324 -102 336 -9 35 14 55 69 61 71 9 105 -20 130 -111 17 -64 18 -65 51 -65 64 0 389 31 396 38 10 11 -47 188 -75 231 -31 46 -98 81 -153 80 -21 -1 -196 -16 -389 -34z"/>
 <path d="M2480 1277 c0 -6 52 -176 117 -377 64 -201 132 -417 153 -480 l36 -115 465 -3 c445 -2 465 -1 496 18 51 31 53 72 9 206 -42 127 -78 187 -130 219 l-36 22 25 23 c42 40 42 75 -5 216 -36 106 -49 133 -82 166 -22 22 -54 46 -72 53 -22 10 -161 20 -442 34 -225 11 -437 23 -471 25 -45 4 -63 2 -63 -7z m599 -153 c49 -10 74 -44 104 -147 40 -131 40 -132 -57 -132 l-79 0 -44 130 c-23 71 -43 135 -43 142 0 14 64 18 119 7z m164 -434 c17 -14 35 -49 56 -113 48 -142 43 -157 -54 -157 l-61 0 -43 133 c-24 72 -46 138 -48 145 -4 9 12 12 60 12 49 0 70 -5 90 -20z"/>
 <path d="M6095 1260 c-66 -3 -130 -12 -142 -18 -33 -18 -53 -53 -53 -92 1 -19 61 -217 134 -440 l132 -405 217 -3 c170 -2 217 0 217 10 0 7 -69 224 -153 483 l-153 470 -39 1 c-22 1 -94 -2 -160 -6z"/>
 <path d="M5268 1233 c-149 -3 -178 -6 -178 -18 0 -8 59 -189 130 -402 72 -212 130 -388 130 -390 0 -1 -61 -3 -136 -3 l-135 0 7 -22 c4 -13 12 -39 19 -58 l12 -35 493 -3 c392 -2 491 0 488 10 -3 7 -11 34 -19 61 l-13 47 -137 0 -137 0 -137 410 -137 410 -36 -2 c-20 -1 -117 -4 -214 -5z"/>
 <path d="M3761 1202 c-24 -23 -31 -39 -31 -69 0 -21 48 -182 113 -376 122 -371 135 -395 221 -436 43 -21 53 -22 471 -19 l427 3 24 28 c16 19 24 40 24 67 0 37 -199 641 -233 707 -19 35 -79 90 -114 104 -14 5 -215 12 -448 16 l-423 6 -31 -31z m583 -133 c15 -16 57 -123 122 -316 113 -333 112 -326 22 -331 -92 -5 -93 -3 -208 342 -115 346 -115 341 -19 334 47 -3 65 -10 83 -29z"/>
 </g>

</svg>