<!DOCTYPE svg PUBLIC "-//W3C//DTD SVG 20010904//EN" "http://www.w3.org/TR/2001/REC-SVG-20010904/DTD/svg10.dtd">
<svg version="1.0" xmlns="http://www.w3.org/2000/svg" width="397px" height="79px" viewBox="0 0 3970 790" preserveAspectRatio="xMidYMid meet">
<g id="layer101" fill="#fefefe" stroke="none">
 <path d="M74 401 c-28 -12 -64 -63 -64 -90 0 -19 6 -21 53 -21 48 0 55 3 65 26 16 34 56 30 60 -6 3 -24 -2 -27 -50 -40 -128 -32 -159 -151 -52 -196 90 -38 204 8 204 81 0 11 -13 15 -54 15 -45 0 -54 -3 -59 -20 -6 -24 -35 -27 -44 -4 -7 18 12 34 41 34 37 0 106 41 122 73 20 38 7 91 -31 127 -22 21 -38 25 -98 27 -40 2 -82 -1 -93 -6z"/>
 <path d="M389 394 c-8 -10 -15 -48 -17 -90 -3 -55 -8 -74 -18 -74 -9 0 -14 -12 -14 -35 0 -24 5 -35 14 -35 8 0 16 -10 18 -22 3 -20 67 -67 91 -68 4 0 7 20 7 45 0 41 2 45 25 45 22 0 25 4 25 35 0 31 -3 35 -25 35 -24 0 -25 3 -25 60 0 57 1 60 25 60 21 0 25 5 25 30 0 30 0 30 -59 30 -42 0 -62 -5 -72 -16z"/>
 <path d="M550 285 l0 -125 45 0 c27 0 45 5 45 12 0 6 7 4 18 -5 20 -19 49 -22 71 -8 20 13 -4 71 -29 71 -37 0 -50 27 -50 106 l0 74 -50 0 -50 0 0 -125z"/>
 <path d="M757 392 c-24 -27 -21 -75 6 -99 12 -11 48 -25 80 -32 37 -8 57 -17 57 -27 0 -19 -34 -18 -51 2 -10 12 -25 15 -57 11 -23 -2 -45 -7 -48 -10 -3 -3 2 -19 10 -35 20 -39 71 -56 144 -49 86 9 99 28 104 155 l4 102 -41 0 c-23 0 -46 -5 -52 -11 -8 -8 -17 -8 -31 0 -34 18 -107 14 -125 -7z m142 -64 c12 -31 9 -32 -34 -14 -39 17 -39 36 1 36 16 0 27 -8 33 -22z"/>
 <path d="M1087 392 c-13 -14 -17 -38 -17 -90 0 -57 -3 -72 -15 -72 -10 0 -15 -11 -15 -35 0 -24 5 -35 15 -35 9 0 15 -9 15 -23 0 -17 11 -28 45 -45 25 -12 48 -22 51 -22 3 0 4 20 2 45 -3 41 -1 45 19 45 20 0 23 5 23 35 0 28 -4 35 -20 35 -18 0 -20 7 -20 54 0 46 3 56 25 70 14 9 25 25 25 36 0 18 -7 20 -58 20 -44 0 -63 -5 -75 -18z"/>
 <path d="M1255 385 c-40 -39 -33 -55 24 -55 34 0 51 4 55 15 7 20 42 19 50 0 6 -17 4 -18 -62 -35 -78 -20 -103 -70 -62 -123 43 -54 175 -45 205 13 l16 30 -50 0 c-27 0 -53 -4 -56 -10 -9 -15 -35 -12 -35 4 0 9 16 16 44 20 62 10 96 38 96 82 0 25 -8 42 -26 59 -24 22 -36 25 -101 25 -65 0 -77 -3 -98 -25z"/>
 <path d="M1576 391 c-39 -26 -55 -57 -56 -107 -1 -115 139 -174 229 -98 58 48 51 166 -13 205 -42 25 -121 25 -160 0z m114 -105 c0 -84 -62 -89 -68 -5 -4 50 17 75 49 58 14 -7 19 -21 19 -53z"/>
 <path d="M1830 240 l0 -170 50 0 50 0 0 170 0 170 -50 0 -50 0 0 -170z"/>
 <path d="M2044 373 c-9 -21 -31 -74 -50 -117 -19 -44 -34 -83 -34 -88 0 -5 23 -8 51 -6 l52 3 20 65 20 64 16 -64 17 -65 52 -3 c39 -2 52 0 52 11 0 7 -3 17 -7 21 -4 4 -26 53 -48 109 l-41 102 -42 3 c-41 3 -43 2 -58 -35z"/>
 <path d="M2294 374 c-30 -31 -34 -42 -34 -91 0 -49 4 -59 33 -88 76 -76 209 -51 238 45 19 64 12 70 -86 70 -85 0 -104 9 -64 30 16 9 24 8 37 -3 12 -11 30 -14 65 -10 26 3 47 9 47 13 0 4 -16 22 -35 39 -32 28 -42 31 -102 31 -62 0 -67 -2 -99 -36z m134 -140 c-11 -11 -25 -14 -42 -10 -40 10 -31 26 16 26 39 0 41 -1 26 -16z"/>
 <path d="M2580 285 l0 -125 45 0 c25 0 45 5 45 10 0 6 11 3 25 -6 20 -13 31 -15 50 -6 32 15 23 43 -23 67 l-37 20 -3 83 -3 82 -49 0 -50 0 0 -125z"/>
 </g>

</svg>