<!DOCTYPE svg PUBLIC "-//W3C//DTD SVG 20010904//EN" "http://www.w3.org/TR/2001/REC-SVG-20010904/DTD/svg10.dtd">
<svg version="1.0" xmlns="http://www.w3.org/2000/svg" width="720px" height="296px" viewBox="0 0 7200 2960" preserveAspectRatio="xMidYMid meet">
<g id="layer101" fill="#ffffff" stroke="none">
 <path d="M4487 2553 c-19 -18 -5 -32 29 -30 20 1 39 -3 41 -9 2 -7 -6 -10 -22 -6 -36 6 -65 -22 -65 -64 0 -46 22 -64 81 -64 l49 0 0 74 c0 54 -4 79 -16 90 -15 16 -84 22 -97 9z m71 -111 c4 -29 -26 -42 -44 -18 -17 24 -6 48 20 44 13 -2 22 -12 24 -26z"/>
 <path d="M6216 2552 c-8 -13 9 -33 25 -30 19 4 16 -26 -9 -89 -22 -53 -22 -53 -1 -53 14 0 25 12 37 41 l18 42 14 -42 c9 -28 19 -41 32 -41 10 0 18 4 18 10 0 14 -51 143 -63 158 -10 13 -63 17 -71 4z"/>
 <path d="M3661 2509 c-36 -14 -50 -39 -51 -85 0 -54 31 -84 86 -84 49 0 85 22 67 41 -10 10 -18 10 -39 0 -54 -24 -100 42 -56 82 22 20 43 22 60 5 10 -9 16 -9 28 3 13 13 13 17 1 27 -20 17 -69 23 -96 11z"/>
 <path d="M3896 2497 c-49 -49 -24 -117 44 -117 41 0 70 26 70 62 0 15 -9 18 -51 18 -34 0 -48 4 -43 11 4 7 21 9 40 6 60 -10 57 27 -3 39 -26 5 -37 1 -57 -19z m66 -79 c-8 -8 -17 -8 -34 0 -22 10 -21 11 12 11 26 1 31 -2 22 -11z"/>
 <path d="M4037 2507 c-13 -9 -18 -23 -15 -42 3 -27 8 -31 43 -35 26 -3 35 -8 27 -13 -7 -5 -21 -5 -32 -2 -28 9 -44 -3 -29 -21 6 -8 29 -14 50 -14 46 0 59 18 59 84 0 41 -2 46 -22 46 -13 0 -32 3 -43 6 -11 3 -28 -1 -38 -9z m58 -37 c3 -5 -3 -10 -14 -10 -12 0 -21 5 -21 10 0 6 6 10 14 10 8 0 18 -4 21 -10z"/>
 <path d="M4188 2509 c-13 -7 -18 -23 -18 -54 0 -25 -4 -45 -10 -45 -5 0 -10 -7 -10 -15 0 -8 5 -15 10 -15 6 0 10 -9 10 -20 0 -11 7 -20 15 -20 8 0 15 9 15 20 0 13 7 20 20 20 11 0 20 7 20 15 0 8 -9 15 -20 15 -32 0 -28 57 5 70 29 11 32 25 9 34 -21 8 -26 7 -46 -5z"/>
 <path d="M4702 2509 c-34 -13 -21 -35 19 -31 35 3 34 -4 -3 -22 -27 -14 -35 -48 -14 -65 20 -17 81 -10 81 9 0 11 -9 14 -30 12 -32 -4 -29 4 7 22 29 15 36 56 12 73 -21 15 -39 16 -72 2z"/>
 <path d="M4842 2510 c-12 -5 -27 -21 -32 -36 -19 -50 11 -94 65 -94 54 0 84 44 65 94 -5 14 -21 31 -35 36 -31 12 -33 12 -63 0z m62 -52 c8 -14 7 -21 -6 -34 -30 -30 -75 9 -48 42 16 18 39 15 54 -8z"/>
 <path d="M5047 2505 c-23 -22 -24 -125 -2 -125 10 0 15 10 15 28 0 46 11 72 30 72 21 0 30 -19 30 -66 0 -24 5 -34 15 -34 12 0 15 14 15 65 0 48 -3 65 -14 65 -7 0 -27 3 -43 6 -21 4 -35 1 -46 -11z"/>
 <path d="M5208 2509 c-13 -7 -18 -23 -18 -54 0 -25 -4 -45 -10 -45 -5 0 -10 -7 -10 -15 0 -8 5 -15 10 -15 6 0 10 -9 10 -20 0 -13 7 -20 20 -20 13 0 20 7 20 20 0 11 7 20 15 20 8 0 15 7 15 15 0 8 -7 15 -15 15 -10 0 -15 11 -15 35 0 24 5 35 14 35 21 0 31 21 15 31 -18 11 -30 11 -51 -2z"/>
 <path d="M5370 2507 c-19 -9 -26 -22 -28 -51 -4 -49 19 -76 65 -76 67 0 96 68 48 115 -27 28 -48 31 -85 12z m65 -47 c7 -23 -10 -50 -31 -50 -21 0 -38 38 -23 56 17 21 47 17 54 -6z"/>
 <path d="M5662 2509 c-34 -13 -22 -35 16 -31 40 4 41 -6 3 -19 -61 -21 -46 -79 19 -79 33 0 40 3 40 20 0 17 -5 19 -32 13 -22 -4 -29 -3 -24 5 4 7 15 12 25 12 38 0 54 45 25 74 -17 18 -38 19 -72 5z"/>
 <path d="M5936 2497 c-49 -49 -21 -117 47 -117 41 0 67 26 67 66 0 40 -18 62 -57 70 -26 5 -37 1 -57 -19z m73 -31 c9 -11 10 -20 1 -36 -13 -24 -38 -23 -53 1 -23 37 25 68 52 35z"/>
 <path d="M6392 2510 c-12 -5 -27 -21 -32 -36 -19 -50 11 -94 64 -94 42 0 64 17 72 55 10 55 -49 97 -104 75z m62 -52 c8 -14 7 -21 -6 -34 -30 -30 -75 9 -48 42 16 18 39 15 54 -8z"/>
 <path d="M6531 2501 c-30 -30 -31 -121 -2 -121 17 0 20 8 23 48 3 39 6 47 23 47 17 0 20 -8 23 -47 3 -40 6 -48 23 -48 17 0 19 7 19 65 0 61 -1 65 -22 65 -13 0 -33 3 -45 6 -14 4 -28 -1 -42 -15z"/>
 <path d="M3790 2446 l0 -64 35 0 c40 0 45 15 15 41 -13 11 -20 29 -20 52 0 24 -5 35 -15 35 -12 0 -15 -14 -15 -64z"/>
 <path d="M4260 2445 c0 -58 2 -65 20 -65 18 0 20 7 20 65 0 58 -2 65 -20 65 -18 0 -20 -7 -20 -65z"/>
 <path d="M4320 2446 l0 -64 52 0 c29 -1 58 4 65 10 8 6 13 33 13 64 0 47 -2 54 -20 54 -17 0 -20 -7 -20 -44 0 -25 -5 -48 -10 -51 -20 -12 -40 17 -40 56 0 32 -3 39 -20 39 -18 0 -20 -7 -20 -64z"/>
 <path d="M4970 2420 c0 -73 3 -90 15 -90 12 0 15 17 15 90 0 73 -3 90 -15 90 -12 0 -15 -17 -15 -90z"/>
 <path d="M5280 2445 c0 -58 2 -65 20 -65 18 0 20 7 20 65 0 58 -2 65 -20 65 -18 0 -20 -7 -20 -65z"/>
 <path d="M5500 2446 l0 -63 47 -1 c26 -1 53 4 60 10 19 16 18 118 -2 118 -10 0 -15 -10 -15 -33 0 -18 -7 -42 -15 -53 -15 -19 -15 -19 -30 0 -8 11 -15 35 -15 53 0 23 -5 33 -15 33 -12 0 -15 -14 -15 -64z"/>
 <path d="M5840 2460 c0 -27 -4 -50 -10 -50 -5 0 -10 -7 -10 -15 0 -8 4 -15 9 -15 5 0 11 -10 13 -22 2 -19 9 -23 38 -23 24 0 35 5 35 15 0 9 -7 14 -17 12 -10 -2 -18 2 -18 8 0 5 7 10 15 10 8 0 15 7 15 15 0 8 -7 15 -15 15 -11 0 -15 12 -15 50 0 43 -3 50 -20 50 -17 0 -20 -7 -20 -50z"/>
 <path d="M6070 2446 l0 -65 40 1 c44 0 54 20 20 38 -15 8 -20 21 -20 50 0 33 -3 40 -20 40 -18 0 -20 -7 -20 -64z"/>
 <path d="M4260 2351 c0 -15 6 -21 21 -21 14 0 19 5 17 17 -5 26 -38 29 -38 4z"/>
 <path d="M5280 2351 c0 -15 6 -21 21 -21 25 0 22 33 -4 38 -12 2 -17 -3 -17 -17z"/>
 <path d="M2397 2326 c-61 -23 -68 -32 -49 -67 19 -32 28 -35 56 -14 11 9 41 15 68 15 60 0 98 -31 98 -81 0 -32 0 -32 -20 -14 -12 11 -41 20 -73 23 -42 3 -58 0 -86 -20 -59 -40 -76 -72 -76 -141 0 -71 24 -121 73 -149 37 -22 113 -23 152 -3 27 14 30 14 30 0 0 -11 11 -15 41 -15 l40 0 -3 189 c-3 206 -6 216 -70 264 -33 25 -130 32 -181 13z m128 -222 c19 -8 45 -55 45 -84 0 -59 -63 -110 -113 -91 -63 24 -83 107 -38 155 24 26 69 34 106 20z"/>
 <path d="M6491 2324 c-51 -22 -62 -33 -51 -53 25 -44 26 -44 58 -27 17 9 52 16 77 16 56 0 95 -32 95 -79 l0 -30 -35 21 c-43 25 -118 21 -158 -8 -92 -67 -84 -239 13 -289 43 -22 122 -19 154 6 l26 20 0 -20 c0 -18 6 -21 41 -21 l41 0 -4 189 c-3 173 -5 192 -24 218 -46 64 -156 91 -233 57z m153 -245 c32 -37 33 -77 5 -113 -29 -37 -61 -48 -99 -35 -53 19 -74 83 -45 139 17 33 27 38 77 39 29 1 42 -5 62 -30z"/>
 <path d="M499 2196 c-38 -13 -99 -53 -99 -64 0 -3 12 -18 26 -33 l26 -28 39 26 c50 33 110 41 144 19 55 -36 23 -74 -91 -106 -91 -25 -124 -59 -124 -129 0 -86 56 -131 162 -131 61 0 137 24 152 48 3 6 -4 22 -16 37 -23 26 -24 26 -60 11 -47 -20 -122 -21 -138 -2 -6 8 -10 25 -8 38 2 19 16 27 79 48 42 14 89 32 103 40 53 28 72 110 40 171 -30 59 -148 87 -235 55z"/>
 <path d="M869 2182 l-34 -30 -3 -111 c-3 -101 -5 -111 -23 -111 -15 0 -19 -7 -19 -35 0 -28 4 -35 20 -35 17 0 20 -7 20 -50 l0 -50 40 0 40 0 0 50 0 50 45 0 c45 0 45 0 45 35 0 35 0 35 -45 35 l-45 0 0 89 c0 68 4 93 16 105 18 18 40 21 49 6 11 -18 32 -10 44 17 17 36 -3 54 -67 61 -44 4 -53 1 -83 -26z"/>
 <path d="M1080 2035 l0 -175 40 0 c34 0 40 3 40 21 l0 20 29 -20 c16 -12 39 -21 50 -21 18 0 21 6 21 40 0 34 -3 40 -21 40 -11 0 -34 13 -50 29 -28 29 -29 32 -29 135 l0 106 -40 0 -40 0 0 -175z"/>
 <path d="M1370 2203 c-8 -3 -27 -17 -42 -31 -23 -21 -28 -34 -28 -74 0 -76 50 -108 168 -108 38 0 52 -4 52 -14 0 -43 -77 -60 -135 -30 -28 14 -31 14 -47 -6 -26 -32 -23 -39 28 -62 36 -16 61 -19 112 -16 58 4 68 8 93 36 29 32 29 32 29 172 l0 140 -35 0 c-28 0 -35 -4 -35 -20 0 -20 0 -20 -32 0 -32 19 -94 25 -128 13z m124 -84 c15 -12 26 -30 26 -45 0 -22 -4 -24 -42 -23 -67 2 -93 12 -96 39 -7 48 64 67 112 29z"/>
 <path d="M1752 2195 c-40 -29 -52 -67 -52 -170 0 -88 -1 -95 -20 -95 -16 0 -20 -7 -20 -35 0 -28 4 -35 20 -35 17 0 20 -7 20 -50 l0 -50 40 0 40 0 0 50 0 50 45 0 c45 0 45 0 45 35 0 35 0 35 -45 35 l-45 0 0 89 c0 68 4 93 16 105 18 18 40 21 49 6 11 -18 32 -10 44 17 10 21 9 29 -3 41 -22 22 -106 27 -134 7z"/>
 <path d="M2025 2196 c-95 -44 -130 -179 -70 -270 40 -61 162 -86 235 -48 44 23 80 90 80 149 l0 43 -130 0 c-76 0 -130 4 -130 10 0 18 44 50 79 56 27 5 45 2 75 -15 40 -21 40 -21 59 -2 40 39 -11 81 -106 87 -40 3 -73 0 -92 -10z m155 -211 c0 -51 -94 -73 -144 -34 -48 38 -35 49 59 49 69 0 85 -3 85 -15z"/>
 <path d="M2740 2035 l0 -175 40 0 40 0 0 175 0 175 -40 0 -40 0 0 -175z"/>
 <path d="M2880 2200 c0 -6 25 -46 56 -90 l55 -80 -55 -81 c-31 -44 -56 -82 -56 -85 0 -2 22 -4 49 -4 48 0 50 1 81 50 18 28 33 50 35 50 2 0 17 -22 35 -50 31 -49 33 -50 82 -50 56 0 57 -6 -14 92 -26 37 -48 71 -48 76 0 5 25 44 55 87 30 44 55 83 55 87 0 5 -20 8 -45 8 -43 0 -47 -3 -81 -50 -20 -27 -39 -50 -44 -50 -4 0 -22 23 -40 50 -31 48 -34 50 -76 50 -24 0 -44 -5 -44 -10z"/>
 <path d="M3539 2182 c-34 -17 -65 -44 -84 -71 -28 -40 -30 -49 -30 -130 0 -79 3 -92 28 -129 15 -23 46 -54 69 -69 38 -25 50 -28 133 -28 85 0 95 2 133 29 49 33 51 44 18 75 l-25 23 -31 -22 c-65 -46 -156 -35 -210 26 -25 29 -30 43 -30 87 0 69 27 112 86 138 52 24 90 19 145 -16 l37 -24 26 28 26 27 -27 27 c-67 64 -175 76 -264 29z"/>
 <path d="M3960 2188 c-65 -33 -90 -76 -90 -153 0 -71 22 -114 79 -152 40 -27 135 -32 180 -9 44 23 88 80 96 124 25 151 -127 260 -265 190z m126 -63 c103 -43 60 -206 -51 -192 -101 14 -119 159 -25 196 34 13 36 13 76 -4z"/>
 <path d="M4300 2035 l0 -175 40 0 c34 0 40 3 40 21 l0 20 26 -20 c20 -15 41 -21 80 -21 45 0 59 5 86 29 l33 29 3 146 3 146 -40 0 -41 0 0 -118 c0 -107 -2 -120 -21 -141 -18 -19 -29 -22 -58 -17 -61 9 -71 32 -71 162 l0 114 -40 0 -40 0 0 -175z"/>
 <path d="M4736 2195 c-21 -7 -45 -20 -53 -28 -13 -13 -13 -18 2 -41 20 -30 27 -31 58 -12 38 25 92 30 111 11 23 -23 9 -38 -64 -64 -87 -32 -118 -81 -89 -144 17 -37 60 -57 124 -57 47 0 115 20 115 35 0 2 -5 16 -12 30 -9 21 -16 25 -32 19 -12 -4 -43 -7 -71 -8 -43 -1 -50 2 -50 18 0 16 13 24 60 38 94 27 128 72 108 141 -19 67 -113 96 -207 62z"/>
 <path d="M5081 2197 c-13 -6 -34 -25 -45 -40 -18 -25 -21 -45 -24 -163 l-4 -134 41 0 41 0 0 93 c0 120 12 165 48 174 41 11 65 5 90 -23 20 -23 22 -35 22 -135 l0 -109 40 0 40 0 0 175 0 175 -40 0 c-33 0 -40 -3 -40 -20 l0 -20 -37 20 c-43 23 -96 26 -132 7z"/>
 <path d="M5420 1970 l0 -240 40 0 40 0 0 240 0 240 -40 0 -40 0 0 -240z"/>
 <path d="M5648 2181 l-33 -29 -3 -111 c-3 -101 -5 -111 -23 -111 -15 0 -19 -7 -19 -35 0 -28 4 -35 20 -35 17 0 20 -7 20 -50 l0 -50 40 0 40 0 0 50 0 50 45 0 c45 0 45 0 45 35 0 35 0 35 -45 35 l-45 0 0 89 c0 68 4 93 16 105 18 18 40 21 49 6 11 -18 32 -11 43 15 16 34 16 32 -18 50 -47 24 -95 19 -132 -14z"/>
 <path d="M5857 2204 c-4 -4 -7 -83 -7 -176 l0 -168 45 0 45 0 -2 173 -3 172 -35 3 c-20 2 -39 0 -43 -4z"/>
 <path d="M6030 2035 l0 -175 40 0 c34 0 40 3 40 21 l0 20 26 -20 c20 -15 41 -21 81 -21 49 0 59 4 89 34 l34 34 0 141 0 141 -40 0 -40 0 0 -120 c0 -107 -2 -122 -20 -140 -11 -11 -29 -20 -40 -20 -29 0 -76 26 -84 45 -3 9 -6 66 -6 126 l0 109 -40 0 -40 0 0 -175z"/>
 <path d="M2746 1798 c-21 -29 -20 -41 2 -61 37 -34 82 -15 82 33 0 51 -55 69 -84 28z"/>
 <path d="M5862 1808 c-7 -7 -12 -24 -12 -38 0 -53 57 -69 86 -25 15 23 15 27 0 50 -18 27 -54 33 -74 13z"/>
 <path d="M3656 1629 l-26 -20 0 -254 c0 -234 1 -255 19 -276 l19 -24 255 0 c237 0 256 1 276 19 20 18 21 28 21 278 0 245 -1 259 -20 278 -19 19 -33 20 -269 20 -236 0 -250 -1 -275 -21z m452 -85 c21 -15 22 -21 22 -193 0 -124 -4 -181 -12 -189 -8 -8 -66 -12 -195 -12 -170 0 -183 1 -193 19 -6 12 -10 92 -10 190 0 215 -15 201 205 201 129 0 165 -3 183 -16z"/>
 <path d="M3006 1619 l-26 -20 0 -259 0 -259 26 -20 c25 -20 39 -21 271 -21 l244 0 24 25 25 24 0 251 0 251 -25 24 -24 25 -244 0 c-232 0 -246 -1 -271 -21z"/>
 <path d="M3650 970 c-19 -19 -20 -33 -20 -275 0 -242 1 -256 20 -275 19 -19 33 -20 273 -20 212 0 256 2 275 16 22 15 22 18 22 279 0 261 0 264 -22 279 -19 14 -63 16 -275 16 -240 0 -254 -1 -273 -20z"/>
 <path d="M3000 960 c-19 -19 -20 -33 -20 -278 0 -238 1 -260 18 -275 16 -15 50 -17 275 -17 244 0 258 1 277 20 19 19 20 33 20 273 0 252 0 254 -23 275 -23 21 -30 22 -275 22 -239 0 -253 -1 -272 -20z m462 -87 c16 -14 18 -34 18 -189 0 -144 -3 -175 -16 -188 -13 -13 -45 -16 -193 -16 -124 0 -181 4 -189 12 -8 8 -12 65 -12 189 0 148 3 180 16 193 24 24 349 23 376 -1z"/>
 </g>

</svg>