<!DOCTYPE svg PUBLIC "-//W3C//DTD SVG 20010904//EN" "http://www.w3.org/TR/2001/REC-SVG-20010904/DTD/svg10.dtd">
<svg version="1.0" xmlns="http://www.w3.org/2000/svg" width="410px" height="251px" viewBox="0 0 4100 2510" preserveAspectRatio="xMidYMid meet">
<g id="layer101" fill="#e00000" stroke="none">
 <path d="M447 2494 c-296 -64 -447 -239 -447 -519 0 -156 25 -266 96 -422 69 -151 227 -412 356 -585 l50 -68 299 0 c164 0 299 2 299 5 0 3 -53 67 -117 143 -191 225 -314 406 -402 592 -69 147 -83 193 -89 291 -5 97 12 145 68 193 39 33 67 40 134 34 97 -8 156 -80 156 -190 0 -102 -75 -168 -192 -168 -32 0 -58 -3 -58 -7 1 -5 42 -80 93 -168 l93 -160 100 -3 c164 -6 280 34 361 121 79 86 113 186 113 335 0 112 -19 193 -67 284 -81 156 -218 249 -426 292 -97 20 -326 20 -420 0z"/>
 <path d="M1988 2473 l-618 -3 0 -190 c0 -188 0 -191 23 -200 39 -17 157 -40 203 -40 l44 0 0 -174 0 -174 33 -11 c17 -5 47 -12 65 -16 32 -7 32 -7 32 -68 0 -33 4 -122 10 -196 5 -75 11 -188 13 -252 l3 -116 -28 -16 c-22 -13 -28 -23 -28 -51 0 -19 -4 -38 -10 -41 -18 -11 -11 -54 10 -65 11 -6 20 -21 20 -35 0 -14 7 -26 19 -30 14 -4 20 -19 25 -67 10 -96 7 -225 -6 -252 -9 -21 -8 -29 4 -43 12 -14 17 -60 22 -217 10 -296 29 -285 42 24 4 100 12 178 20 198 10 26 11 39 3 55 -8 14 -10 65 -7 154 5 120 8 136 27 154 11 11 21 26 21 34 0 8 10 21 21 29 17 12 20 21 15 45 -3 17 -9 45 -12 62 -4 16 -18 38 -32 47 l-25 16 7 206 c5 155 20 592 26 728 0 6 9 12 20 12 19 0 20 -7 20 -95 0 -108 -4 -104 100 -108 l55 -2 3 33 c3 32 3 32 60 32 31 0 101 3 155 7 l97 6 0 119 c0 98 3 118 15 118 12 0 15 19 15 115 0 70 4 115 10 115 6 0 10 -37 10 -90 l0 -90 90 0 89 0 3 116 3 115 136 -183 c75 -101 159 -215 188 -255 l52 -72 -176 -274 c-96 -151 -175 -277 -175 -281 0 -3 123 -6 273 -6 l273 0 68 153 c38 83 71 155 75 159 3 4 50 -65 105 -153 l99 -159 253 0 c140 0 254 2 254 5 0 2 -82 113 -183 247 -100 134 -192 257 -205 274 l-22 32 80 132 c44 72 130 209 190 305 61 95 110 176 110 179 0 4 -121 5 -270 4 l-270 -3 -88 -181 -89 -182 -18 32 c-10 17 -61 100 -113 184 l-96 152 -260 -2 c-144 -2 -539 -4 -878 -5z"/>
 <path d="M540 785 l0 -85 -35 0 c-31 0 -35 -3 -35 -25 l0 -25 110 0 110 0 0 25 c0 22 -4 25 -35 25 l-35 0 0 85 0 85 -40 0 -40 0 0 -85z"/>
 <path d="M694 818 c3 -29 6 -79 6 -110 l0 -58 35 0 c33 0 35 2 35 33 l0 32 52 0 53 0 3 78 3 77 -41 0 -40 0 0 -51 c0 -66 -24 -62 -28 4 l-3 47 -41 0 -41 0 7 -52z"/>
 <path d="M933 855 c-18 -13 -23 -26 -23 -61 0 -62 24 -84 93 -84 63 0 90 21 85 67 -3 26 -7 28 -58 34 l-55 6 53 1 c49 2 53 4 50 25 -3 20 -9 22 -63 25 -42 2 -67 -2 -82 -13z m87 -85 c0 -5 -9 -10 -20 -10 -11 0 -20 5 -20 10 0 6 9 10 20 10 11 0 20 -4 20 -10z"/>
 </g>

</svg>